<svg xmlns="http://www.w3.org/2000/svg" width="182" height="46"><path d="M181.742 45.171V0h-14.436c-9.324 0-16.162 2.832-16.162 11.12 0 4.282 2.487 8.427 7.736 9.808v.276c-6.493 1.105-10.084 4.628-10.084 10.706 0 9.048 7.39 13.261 17.336 13.261h15.61zm-8.012-6.216h-6.769c-6.63 0-10.36-2.487-10.36-7.598 0-4.696 3.591-6.907 10.36-6.907h6.769v14.505zm0-20.237h-5.733c-6.285 0-8.979-2.418-8.979-6.63 0-4.145 2.97-5.872 8.84-5.872h5.872v12.502zm-58.247 9.532c0-11.052 7.667-17.82 15.61-17.82 9.186 0 14.021 6.63 14.021 16.093 0 1.519-.138 2.9-.345 3.73h-21.55c.69 6.146 4.559 9.6 10.015 9.6 2.901 0 5.388-.898 7.874-2.487l2.694 4.973C140.556 44.48 136.48 46 132.198 46c-9.393 0-16.715-6.562-16.715-17.75zm7.667-3.04h15.057c0-5.387-2.28-8.633-6.907-8.633-4.006 0-7.46 2.97-8.15 8.633zM71.763 45.171h9.739l5.456-23.76a309.14 309.14 0 0 0 2.072-10.429h.276c.553 3.453 1.244 6.907 2.003 10.43l5.595 23.76h9.946L115.483 0h-7.666l-3.937 22.793c-.69 4.766-1.45 9.6-2.141 14.435h-.277c-1.036-4.835-2.003-9.739-3.039-14.435L92.898 0h-6.976l-5.526 22.793c-1.036 4.766-2.003 9.67-2.97 14.435h-.276c-.69-4.766-1.45-9.6-2.21-14.435L71.003 0h-8.22l8.98 45.171zM34.189 28.25c0-11.05 7.667-17.82 15.61-17.82 9.186 0 14.02 6.631 14.02 16.094 0 1.519-.137 2.9-.345 3.73h-21.55c.692 6.146 4.56 9.6 10.016 9.6 2.9 0 5.387-.898 7.874-2.487l2.694 4.973C59.26 44.48 55.186 46 50.904 46c-9.393 0-16.715-6.562-16.715-17.75zm7.667-3.039h15.057c0-5.387-2.28-8.633-6.907-8.633-4.006 0-7.46 2.97-8.15 8.633zM0 45.171V0h14.435c9.325 0 16.163 2.832 16.163 11.12 0 4.282-2.487 8.427-7.736 9.808v.276c6.492 1.105 10.084 4.628 10.084 10.706 0 9.048-7.39 13.261-17.336 13.261H0zm8.012-6.216h6.769c6.63 0 10.36-2.487 10.36-7.598 0-4.696-3.591-6.907-10.36-6.907H8.012v14.505zm0-20.237h5.733c6.285 0 8.979-2.418 8.979-6.63 0-4.145-2.97-5.872-8.841-5.872H8.012v12.502z" fill="#FFF" fill-rule="evenodd"/></svg>